# xmcd CD database file
#
# Track frame offsets:
#	150
#	43909
#	86722
#	129510
#	174203
#	209616
#
# Disc length: 3622 seconds
#
# Revision: 0
# Processed by: cddbd v1.5.1PL2 Copyright (c) Steve Scherf et al.
# Submitted via: CDex 1.51
#
DISCID=500e2406
DTITLE=Curious Paradise - English Elements
DYEAR=2005
DGENRE=Jazz
TTITLE0=Marshland March
TTITLE1=Wild Weather Flash
TTITLE2=Through the Mist
TTITLE3=English Elements
TTITLE4=Aurora's Effect
TTITLE5=Nocturnal Navigation
EXTD=YEAR: 2005
EXTT0=
EXTT1=
EXTT2=
EXTT3=
EXTT4=
EXTT5=
PLAYORDER=
